<?xml version="1.0" encoding="utf-8" ?><svg xmlns="http://www.w3.org/2000/svg" xmlns:xlink="http://www.w3.org/1999/xlink" width="1200" height="1200" viewBox="0 0 1200 1200"><path fill="#283342" transform="scale(5.12821 5.21739)" d="M110.06 11.32C166.968 9.26868 214.774 53.7188 216.862 110.625C218.95 167.532 174.531 215.366 117.626 217.491C60.6683 219.619 12.7804 175.15 10.6902 118.191C8.60007 61.2322 53.0999 13.3732 110.06 11.32ZM113.875 200.221C161.274 200.129 199.614 161.61 199.486 114.211C199.358 66.8122 160.811 28.5013 113.412 28.6648C66.0639 28.8281 27.8027 67.3252 27.9303 114.674C28.058 162.022 66.5262 200.313 113.875 200.221Z"/><path fill="#D76B2A" transform="scale(5.12821 5.21739)" d="M110.332 71.3143C134.105 69.4062 154.932 87.112 156.875 110.882C158.817 134.652 141.142 155.505 117.375 157.483C93.5584 159.464 72.653 141.745 70.706 117.925C68.7591 94.1058 86.5096 73.2263 110.332 71.3143Z"/></svg>